<svg width="128" height="32" fill="none" xmlns="http://www.w3.org/2000/svg"><g clip-path="url(#clip0_0_341)"><path opacity=".35" fill="#C9A96E" d="M0 22h125v6H0z"/><path d="M6.05 24.325c.767.1 1.492.342 2.175.725V26H.5v-.95c.267-.15.55-.283.85-.4.3-.133.617-.242.95-.325v-14.15a5.292 5.292 0 01-1.025-.325 11.044 11.044 0 01-.775-.4V8.5h13.075c0 .333-.017.7-.05 1.1-.033.383-.075.783-.125 1.2-.033.4-.083.8-.15 1.2-.05.383-.108.742-.175 1.075H12.05l-1.15-2.95H6.05V16.7h3.425l1.125-1.925h.75c.067.433.108.892.125 1.375.033.483.05.967.05 1.45-.017.5-.042.983-.075 1.45-.017.467-.05.883-.1 1.25h-.75l-1.125-1.975H6.05v6zM20.662 26h-6.175v-.95a5.06 5.06 0 01.85-.425c.317-.133.625-.233.925-.3L22.712 8.2h1.85l6.275 16.125c.334.067.667.167 1 .3.334.117.625.258.875.425V26h-7.825v-.95c.317-.15.659-.292 1.025-.425a7.247 7.247 0 011.05-.3l-1.45-3.975h-5.55l-1.475 3.975c.767.1 1.492.342 2.175.725V26zm-.1-7.275h4.425l-1.625-4.775-.475-2.15h-.05l-.55 2.2-1.725 4.725zm18.563 5.2c.184.183.442.358.775.525.334.15.775.225 1.325.225.917 0 1.675-.233 2.275-.7.617-.483.925-1.15.925-2 0-.617-.2-1.133-.6-1.55-.383-.417-.875-.8-1.475-1.15-.6-.35-1.242-.692-1.925-1.025a12.148 12.148 0 01-1.925-1.225 6.422 6.422 0 01-1.5-1.65c-.383-.65-.575-1.45-.575-2.4 0-.817.15-1.525.45-2.125.3-.6.709-1.092 1.225-1.475a5.258 5.258 0 011.875-.875c.717-.2 1.492-.3 2.325-.3 1.017 0 1.959.075 2.825.225.883.133 1.675.35 2.375.65-.017.333-.05.717-.1 1.15a17.21 17.21 0 01-.15 1.3c-.066.417-.142.817-.225 1.2a12.01 12.01 0 01-.2.925H45.8l-1.15-3.425c-.2-.1-.5-.192-.9-.275a5.634 5.634 0 00-1.2-.125c-.7 0-1.291.183-1.775.55-.483.367-.725.9-.725 1.6 0 .633.2 1.175.6 1.625.4.433.9.833 1.5 1.2s1.25.733 1.95 1.1c.717.35 1.375.758 1.975 1.225.6.467 1.1 1.017 1.5 1.65.4.617.6 1.383.6 2.3 0 1.667-.566 2.958-1.7 3.875-1.117.9-2.767 1.35-4.95 1.35a13.49 13.49 0 01-3.15-.375 13.947 13.947 0 01-1.3-.375c-.367-.133-.642-.275-.825-.425.017-.383.059-.792.125-1.225.067-.45.133-.892.2-1.325.083-.45.167-.875.25-1.275.083-.4.167-.75.25-1.05H38.1l1.025 3.675zM59.715 26h-7.574v-.95a7.757 7.757 0 012.05-.725v-14.15a6.476 6.476 0 01-1.15-.3 4.57 4.57 0 01-.9-.425V8.5h7.575v.95c-.25.167-.534.317-.85.45-.3.133-.609.225-.925.275v6.05h6.625v-6.05a4.392 4.392 0 01-1-.3 6.746 6.746 0 01-.775-.425V8.5h7.575v.95a4.04 4.04 0 01-.975.45 9.264 9.264 0 01-1.075.275v14.15c.383.067.75.167 1.1.3.366.133.683.275.95.425V26H62.79v-.95c.25-.15.525-.292.825-.425.3-.133.616-.233.95-.3V17.85H57.94v6.475c.333.067.641.158.925.275.283.117.566.267.85.45V26zm22.19 0h-7.8v-.95a6.441 6.441 0 012.024-.725v-14.15a5.451 5.451 0 01-1.05-.275 5.895 5.895 0 01-.974-.45V8.5h7.8v.95a5.57 5.57 0 01-1 .475c-.35.117-.692.2-1.026.25v14.15c.334.067.675.158 1.025.275.367.117.7.267 1 .45V26zm4.226-8.75c0-1.3.184-2.5.55-3.6.367-1.117.909-2.075 1.625-2.875a7.29 7.29 0 012.65-1.9c1.05-.45 2.259-.675 3.625-.675 1.367 0 2.575.225 3.625.675 1.05.45 1.925 1.083 2.625 1.9.717.8 1.259 1.758 1.625 2.875.367 1.1.55 2.3.55 3.6 0 1.3-.183 2.508-.55 3.625a8.251 8.251 0 01-1.625 2.875c-.7.8-1.575 1.425-2.625 1.875-1.05.45-2.258.675-3.625.675-1.366 0-2.575-.225-3.625-.675-1.05-.45-1.933-1.075-2.65-1.875a8.265 8.265 0 01-1.625-2.875c-.366-1.117-.55-2.325-.55-3.625zm4.25 0c0 1.067.084 2.058.25 2.975.167.9.425 1.683.775 2.35.367.65.825 1.167 1.375 1.55.567.367 1.242.55 2.025.55.717 0 1.325-.183 1.825-.55.5-.383.909-.9 1.225-1.55.317-.667.542-1.45.675-2.35.15-.917.225-1.908.225-2.975 0-1.067-.083-2.05-.25-2.95-.15-.917-.4-1.7-.75-2.35-.333-.667-.783-1.183-1.35-1.55-.55-.383-1.225-.575-2.025-.575-.766 0-1.408.192-1.925.575-.516.367-.933.883-1.25 1.55-.3.65-.516 1.433-.65 2.35-.116.9-.175 1.883-.175 2.95zm28.373-8.75h6.2v.95c-.317.25-.667.475-1.05.675a7.531 7.531 0 01-1.075.425V26.3h-2.125l-8.825-12.75-1-1.925h-.075l.225 2V24.05c.333.083.7.225 1.1.425.417.183.767.375 1.05.575V26h-6.175v-.95c.3-.2.625-.383.975-.55a7.233 7.233 0 011.125-.45V10.4a13.165 13.165 0 01-1-.45 7.595 7.595 0 01-.9-.525V8.5h5.4l7.175 10.4 1.15 2.15h.1l-.125-2.15v-8.35c-.4-.133-.792-.292-1.175-.475a7.53 7.53 0 01-.975-.625V8.5z" fill="#171717"/></g><defs><clipPath id="clip0_0_341"><path fill="#fff" d="M0 0h128v32H0z"/></clipPath></defs></svg>