<svg width="128" height="32" viewBox="0 0 128 32" fill="none" xmlns="http://www.w3.org/2000/svg">
<g clip-path="url(#clip0_0_341)">
<rect opacity="0.35" y="22" width="125" height="6" fill="#C9A96E"/>
<path d="M6.05 24.325C6.81667 24.425 7.54167 24.6667 8.225 25.05V26H0.5V25.05C0.766667 24.9 1.05 24.7667 1.35 24.65C1.65 24.5167 1.96667 24.4083 2.3 24.325V10.175C1.91667 10.0917 1.575 9.98333 1.275 9.85C0.991667 9.71667 0.733333 9.58333 0.5 9.45V8.5H13.575C13.575 8.83333 13.5583 9.2 13.525 9.6C13.4917 9.98333 13.45 10.3833 13.4 10.8C13.3667 11.2 13.3167 11.6 13.25 12C13.2 12.3833 13.1417 12.7417 13.075 13.075H12.05L10.9 10.125H6.05V16.7H9.475L10.6 14.775H11.35C11.4167 15.2083 11.4583 15.6667 11.475 16.15C11.5083 16.6333 11.525 17.1167 11.525 17.6C11.5083 18.1 11.4833 18.5833 11.45 19.05C11.4333 19.5167 11.4 19.9333 11.35 20.3H10.6L9.475 18.325H6.05V24.325ZM20.6623 26H14.4873V25.05C14.754 24.8833 15.0373 24.7417 15.3373 24.625C15.654 24.4917 15.9623 24.3917 16.2623 24.325L22.7123 8.2H24.5623L30.8373 24.325C31.1706 24.3917 31.504 24.4917 31.8373 24.625C32.1706 24.7417 32.4623 24.8833 32.7123 25.05V26H24.8873V25.05C25.204 24.9 25.5456 24.7583 25.9123 24.625C26.279 24.4917 26.629 24.3917 26.9623 24.325L25.5123 20.35H19.9623L18.4873 24.325C19.254 24.425 19.979 24.6667 20.6623 25.05V26ZM20.5623 18.725H24.9873L23.3623 13.95L22.8873 11.8H22.8373L22.2873 14L20.5623 18.725ZM39.1252 23.925C39.3085 24.1083 39.5669 24.2833 39.9002 24.45C40.2335 24.6 40.6752 24.675 41.2252 24.675C42.1419 24.675 42.9002 24.4417 43.5002 23.975C44.1169 23.4917 44.4252 22.825 44.4252 21.975C44.4252 21.3583 44.2252 20.8417 43.8252 20.425C43.4419 20.0083 42.9502 19.625 42.3502 19.275C41.7502 18.925 41.1085 18.5833 40.4252 18.25C39.7419 17.9 39.1002 17.4917 38.5002 17.025C37.9002 16.5583 37.4002 16.0083 37.0002 15.375C36.6169 14.725 36.4252 13.925 36.4252 12.975C36.4252 12.1583 36.5752 11.45 36.8752 10.85C37.1752 10.25 37.5835 9.75833 38.1002 9.375C38.6335 8.975 39.2585 8.68333 39.9752 8.5C40.6919 8.3 41.4669 8.2 42.3002 8.2C43.3169 8.2 44.2585 8.275 45.1252 8.425C46.0085 8.55833 46.8002 8.775 47.5002 9.075C47.4835 9.40833 47.4502 9.79167 47.4002 10.225C47.3669 10.6583 47.3169 11.0917 47.2502 11.525C47.1835 11.9417 47.1085 12.3417 47.0252 12.725C46.9585 13.0917 46.8919 13.4 46.8252 13.65H45.8002L44.6502 10.225C44.4502 10.125 44.1502 10.0333 43.7502 9.95C43.3669 9.86667 42.9669 9.825 42.5502 9.825C41.8502 9.825 41.2585 10.0083 40.7752 10.375C40.2919 10.7417 40.0502 11.275 40.0502 11.975C40.0502 12.6083 40.2502 13.15 40.6502 13.6C41.0502 14.0333 41.5502 14.4333 42.1502 14.8C42.7502 15.1667 43.4002 15.5333 44.1002 15.9C44.8169 16.25 45.4752 16.6583 46.0752 17.125C46.6752 17.5917 47.1752 18.1417 47.5752 18.775C47.9752 19.3917 48.1752 20.1583 48.1752 21.075C48.1752 22.7417 47.6085 24.0333 46.4752 24.95C45.3585 25.85 43.7085 26.3 41.5252 26.3C40.9919 26.3 40.4502 26.2667 39.9002 26.2C39.3669 26.1333 38.8585 26.0417 38.3752 25.925C37.8919 25.8083 37.4585 25.6833 37.0752 25.55C36.7085 25.4167 36.4335 25.275 36.2502 25.125C36.2669 24.7417 36.3085 24.3333 36.3752 23.9C36.4419 23.45 36.5085 23.0083 36.5752 22.575C36.6585 22.125 36.7419 21.7 36.8252 21.3C36.9085 20.9 36.9919 20.55 37.0752 20.25H38.1002L39.1252 23.925ZM59.7156 26H52.1406V25.05C52.424 24.9 52.749 24.7583 53.1156 24.625C53.499 24.4917 53.8573 24.3917 54.1906 24.325V10.175C53.7906 10.1083 53.4073 10.0083 53.0406 9.875C52.674 9.74167 52.374 9.6 52.1406 9.45V8.5H59.7156V9.45C59.4656 9.61667 59.1823 9.76667 58.8656 9.9C58.5656 10.0333 58.2573 10.125 57.9406 10.175V16.225H64.5656V10.175C64.199 10.1083 63.8656 10.0083 63.5656 9.875C63.2823 9.74167 63.024 9.6 62.7906 9.45V8.5H70.3656V9.45C70.0823 9.63333 69.7573 9.78333 69.3906 9.9C69.024 10.0167 68.6656 10.1083 68.3156 10.175V24.325C68.699 24.3917 69.0656 24.4917 69.4156 24.625C69.7823 24.7583 70.099 24.9 70.3656 25.05V26H62.7906V25.05C63.0406 24.9 63.3156 24.7583 63.6156 24.625C63.9156 24.4917 64.2323 24.3917 64.5656 24.325V17.85H57.9406V24.325C58.274 24.3917 58.5823 24.4833 58.8656 24.6C59.149 24.7167 59.4323 24.8667 59.7156 25.05V26ZM81.9045 26H74.1045V25.05C74.7712 24.6833 75.4462 24.4417 76.1295 24.325V10.175C75.7962 10.125 75.4462 10.0333 75.0795 9.9C74.7128 9.76667 74.3878 9.61667 74.1045 9.45V8.5H81.9045V9.45C81.6045 9.63333 81.2712 9.79167 80.9045 9.925C80.5545 10.0417 80.2128 10.125 79.8795 10.175V24.325C80.2128 24.3917 80.5545 24.4833 80.9045 24.6C81.2712 24.7167 81.6045 24.8667 81.9045 25.05V26ZM86.1313 17.25C86.1313 15.95 86.3146 14.75 86.6813 13.65C87.0479 12.5333 87.5896 11.575 88.3063 10.775C89.0229 9.95833 89.9063 9.325 90.9563 8.875C92.0063 8.425 93.2146 8.2 94.5813 8.2C95.9479 8.2 97.1563 8.425 98.2063 8.875C99.2563 9.325 100.131 9.95833 100.831 10.775C101.548 11.575 102.09 12.5333 102.456 13.65C102.823 14.75 103.006 15.95 103.006 17.25C103.006 18.55 102.823 19.7583 102.456 20.875C102.09 21.975 101.548 22.9333 100.831 23.75C100.131 24.55 99.2563 25.175 98.2063 25.625C97.1563 26.075 95.9479 26.3 94.5813 26.3C93.2146 26.3 92.0063 26.075 90.9563 25.625C89.9063 25.175 89.0229 24.55 88.3063 23.75C87.5896 22.9333 87.0479 21.975 86.6813 20.875C86.3146 19.7583 86.1313 18.55 86.1313 17.25ZM90.3813 17.25C90.3813 18.3167 90.4646 19.3083 90.6313 20.225C90.7979 21.125 91.0563 21.9083 91.4062 22.575C91.7729 23.225 92.2313 23.7417 92.7813 24.125C93.3479 24.4917 94.0229 24.675 94.8063 24.675C95.5229 24.675 96.1313 24.4917 96.6313 24.125C97.1313 23.7417 97.5396 23.225 97.8563 22.575C98.1729 21.9083 98.3979 21.125 98.5313 20.225C98.6813 19.3083 98.7563 18.3167 98.7563 17.25C98.7563 16.1833 98.6729 15.2 98.5063 14.3C98.3563 13.3833 98.1063 12.6 97.7563 11.95C97.4229 11.2833 96.9729 10.7667 96.4063 10.4C95.8563 10.0167 95.1813 9.825 94.3813 9.825C93.6146 9.825 92.9729 10.0167 92.4563 10.4C91.9396 10.7667 91.5229 11.2833 91.2063 11.95C90.9063 12.6 90.6896 13.3833 90.5563 14.3C90.4396 15.2 90.3813 16.1833 90.3813 17.25ZM118.754 8.5H124.954V9.45C124.637 9.7 124.287 9.925 123.904 10.125C123.521 10.3083 123.162 10.45 122.829 10.55V26.3H120.704L111.879 13.55L110.879 11.625H110.804L111.029 13.625V24.05C111.362 24.1333 111.729 24.275 112.129 24.475C112.546 24.6583 112.896 24.85 113.179 25.05V26H107.004V25.05C107.304 24.85 107.629 24.6667 107.979 24.5C108.346 24.3167 108.721 24.1667 109.104 24.05V10.4C108.771 10.2667 108.437 10.1167 108.104 9.95C107.771 9.78333 107.471 9.60833 107.204 9.425V8.5H112.604L119.779 18.9L120.929 21.05H121.029L120.904 18.9V10.55C120.504 10.4167 120.112 10.2583 119.729 10.075C119.362 9.875 119.037 9.66667 118.754 9.45V8.5Z" fill="#171717"/>
</g>
<defs>
<clipPath id="clip0_0_341">
<rect width="128" height="32" fill="white"/>
</clipPath>
</defs>
</svg>
